# xmcd
#
# Track frame offsets:
#	150
#	19646
#	31394
#	43108
#	64185
#	78274
#	90082
#	104765
#	124839
#	144224
#	166005
#	187835
#	210083
#	227285
#
# Disc length: 3262 seconds
#
# Revision: 1
# Processed by: cddbd v1.5.1PL0 Copyright (c) Steve Scherf et al.
# Submitted via: audiograbber 1.83.01
#
DISCID=9c0cbc0e
DTITLE=Krzysztof Daukszewicz - Zadupie
DYEAR=1999
DGENRE=Ballad
TTITLE0=Przyszli dzis zlodzieje
TTITLE1=Ballada pralnicza
TTITLE2=W pogoni za niepewnym jutrem
TTITLE3=Leniwa niedziela
TTITLE4=Zadupie
TTITLE5=Placz moja wodo
TTITLE6=Sposob na przetrwanie
TTITLE7=Na bezdrozach
TTITLE8=Obok hotelu Grand
TTITLE9=Narkomani
TTITLE10=Dobranoc Europo
TTITLE11=Poeta i pan Strauss
TTITLE12=Easy Rider
TTITLE13=I to jest moj kraj
EXTD=
EXTT0=
EXTT1=
EXTT2=
EXTT3=
EXTT4=
EXTT5=
EXTT6=
EXTT7=
EXTT8=
EXTT9=
EXTT10=
EXTT11=
EXTT12=
EXTT13=
PLAYORDER=
